<?xml version="1.0" encoding="UTF-8"?>
<!DOCTYPE svg PUBLIC "-//W3C//DTD SVG 1.1//EN" "http://www.w3.org/Graphics/SVG/1.1/DTD/svg11.dtd">
<!-- Creator: CorelDRAW X7 -->
<svg xmlns="http://www.w3.org/2000/svg" xml:space="preserve" width="210mm" height="210mm" version="1.1" style="shape-rendering:geometricPrecision; text-rendering:geometricPrecision; image-rendering:optimizeQuality; fill-rule:evenodd; clip-rule:evenodd"
viewBox="0 0 21000000 21000000"
 xmlns:xlink="http://www.w3.org/1999/xlink">
 <defs>
  <style type="text/css">
   <![CDATA[
    .str0 {stroke:#E31E24;stroke-width:50000}
    .fil0 {fill:#E84349}
    .fil1 {fill:#FEFEFE}
   ]]>
  </style>
 </defs>
 <g id="Слой_x0020_1">
  <metadata id="CorelCorpID_0Corel-Layer"/>
  <circle class="fil0 str0" cx="10500000" cy="10500000" r="10500000"/>
  <path class="fil1" d="M18211660 8440640c-3550,0 -8270,0 -11820,0 -303640,0 -552940,243390 -558850,548220l-40170 2048720 -14196920 -94520 55540 -4336110c4720,-308370 -243390,-562390 -551770,-567120 -2360,0 -5900,0 -8270,0 -306000,0 -555300,245760 -558850,552950l-100420 7800270c-3550,309550 243390,563570 552940,567120 2360,0 4720,0 7090,0 306010,0 556480,-245760 560030,-552950l29540 -2344090 14188640 94520 -37810 1931750c-5900,309550 239850,564760 549400,570670 3550,0 7090,0 10640,0 303640,0 554120,-243390 560030,-548220l99240 -5100540c5910,-309550 -239840,-564760 -548210,-570670l0 0zm-13836560 2119620l2800160 0c378080,0 685270,-307190 685270,-685270 0,-376900 -307190,-685270 -685270,-685270l-2800160 0c-378080,0 -685270,307190 -685270,685270 0,378080 307190,685270 685270,685270zm2099530 -2774170l1180 0c300100,0 582480,-103970 795150,-291830 213850,-190220 330820,-441880 330820,-711260 0,-551760 -505680,-1001920 -1127150,-1001920 -300110,0 -582480,103980 -795150,293020 -213860,189040 -332010,440700 -330820,710080 0,552940 505680,1001910 1125970,1001910zm2925390 2907680l6500620 0c740800,0 1343370,-602570 1343370,-1343370 0,-740800 -602570,-1344550 -1343370,-1344550l-6500620 0c-740800,0 -1343360,603750 -1343360,1344550 0,740800 602560,1343370 1343360,1343370z"/>
 </g>
</svg>
