<?xml version="1.0" encoding="UTF-8"?>
<!DOCTYPE svg PUBLIC "-//W3C//DTD SVG 1.1//EN" "http://www.w3.org/Graphics/SVG/1.1/DTD/svg11.dtd">
<!-- Creator: CorelDRAW X7 -->
<svg xmlns="http://www.w3.org/2000/svg" xml:space="preserve" width="210mm" height="210mm" version="1.1" style="shape-rendering:geometricPrecision; text-rendering:geometricPrecision; image-rendering:optimizeQuality; fill-rule:evenodd; clip-rule:evenodd"
viewBox="0 0 21000000 21000000"
 xmlns:xlink="http://www.w3.org/1999/xlink">
 <defs>
  <style type="text/css">
   <![CDATA[
    .fil0 {fill:#D9DADA}
    .fil1 {fill:#E31E24}
   ]]>
  </style>
 </defs>
 <g id="Слой_x0020_1">
  <metadata id="CorelCorpID_0Corel-Layer"/>
  <path class="fil0" d="M0 10495790c0,213970 19880,422940 18570,629210 -1900,298920 128510,1152850 184040,1430670 96540,482870 245150,1066320 423540,1519760l384510 920410c108850,215960 211840,435370 332160,644180 19380,33620 39610,61970 59080,100510 65950,130530 286870,481640 375100,601240l925230 1187030 233810 254360c26390,29980 55510,55650 84410,84560 120080,120080 237630,247500 369860,353010 17470,13930 26870,25000 43110,41380 81000,81680 173890,150990 258170,229990 81340,76250 272010,224090 358570,289190l369960 277800c32210,23900 61370,41570 93880,65710l489150 318190c434430,261760 605330,347480 1061360,572100 256280,126240 524970,236300 794300,332230 45750,16300 77290,33170 122080,46900 166350,50980 320490,109970 488230,159510l515840 141300c89000,22410 171750,35420 261060,58120 330450,83940 1104620,202270 1413880,210180 200900,5140 426140,28250 628880,28250 621670,0 1019130,-11320 1626810,-91110 100490,-13200 189840,-24100 280220,-38970 96090,-15790 181810,-33200 279050,-49520 266130,-44670 523570,-115860 786080,-180840 171790,-42520 324930,-98240 497970,-149770 209510,-62400 734680,-252670 945210,-359690l763430 -372480c41550,-20540 65040,-34520 103540,-56060 71870,-40200 142800,-78110 209960,-118610l198400 -120780c200630,-128910 402770,-250770 595040,-390670l324530 -238730c18290,-14330 26880,-22770 46840,-37650l357630 -290130c113400,-101340 235310,-198230 342990,-304770l412950 -403800c31580,-31220 43920,-53910 74880,-84710l234900 -253260c182790,-195340 350150,-411540 510550,-625370l202600 -276190c26020,-34760 44180,-64870 69720,-99260 44360,-59730 86710,-126740 126930,-192250 21730,-35390 42840,-57560 64920,-94670l306140 -510600c21460,-35520 34650,-67620 56240,-103360 20100,-33260 39850,-66430 57800,-101790l372240 -773090c90270,-185800 155550,-380560 230680,-576660 16180,-42220 30410,-75980 42750,-116860 13600,-45060 26470,-79160 42210,-126760l152570 -495200c13190,-42550 22130,-78050 35490,-124100 62070,-214050 111220,-437660 155840,-660910 55520,-277840 95350,-556960 130730,-845630 92850,-757730 94320,-1704750 10,-2463100 -24880,-200090 -47960,-376250 -82260,-565510 -17950,-99080 -31970,-187540 -50110,-278470 -18680,-93600 -38460,-177210 -57790,-270780 -70700,-342300 -237450,-924150 -373470,-1260030l-91270 -237310c-155250,-368350 -222930,-537270 -404500,-900420 -89420,-178870 -183070,-359750 -286450,-530280l-187860 -309700c-86450,-134580 -167380,-266610 -262480,-394670 -24030,-32360 -41130,-61640 -65600,-93990l-383400 -508440c-94650,-124180 -204880,-233890 -301970,-355190 -109100,-136310 -233610,-261230 -357720,-383910 -57490,-56830 -102080,-113140 -163820,-164750 -28380,-23730 -53460,-52620 -80220,-79380l-169010 -159550c-210600,-213230 -483450,-410070 -713210,-601080 -31260,-26000 -58680,-43620 -90450,-69140 -151730,-121900 -320380,-223690 -477300,-339440 -31720,-23390 -65240,-41980 -96630,-62960 -34810,-23270 -65710,-44000 -102820,-66160l-201400 -127160c-205670,-124470 -419290,-243640 -634540,-351190l-219040 -109520c-75630,-37860 -148740,-70440 -222030,-106540 -34190,-16840 -73810,-32700 -111490,-48100 -38450,-15710 -65460,-32130 -109860,-49730 -83400,-33050 -150180,-61870 -233420,-95160 -43120,-17250 -70910,-28250 -113960,-45630 -346270,-139730 -1030900,-354600 -1384690,-427120l-538400 -109360c-1238720,-223750 -2464720,-208650 -3702860,-2710 -188590,31380 -366050,74400 -546620,110520 -246620,49340 -794580,204530 -1012970,291910l-359550 128610c-180020,70430 -410670,160920 -582470,243650l-754080 381840c-41160,20350 -70910,41700 -106730,62240 -170950,98070 -344720,198450 -508420,308310l-482220 334510c-34090,25780 -58630,41130 -92650,66960 -21790,16530 -26250,22460 -46710,37770 -153630,114850 -313140,232300 -453720,363010 -71550,66540 -150820,122840 -220490,192580l-582170 563140c-57940,57920 -101150,110560 -159730,168850 -31040,30880 -43100,53170 -75010,84570 -20580,20240 -21200,22210 -39120,45380l-445140 540580c-15520,19410 -24440,24700 -39140,45340 -135340,189950 -281750,372500 -405420,570930l-221630 351010c-12800,20310 -20690,29450 -32950,51550 -117600,211980 -242200,418230 -350640,635090 -147200,294430 -282440,593870 -405430,899480 -145130,360610 -257830,731720 -368630,1105270 -12430,41880 -20180,87980 -32490,136480 -23380,91980 -46480,164710 -65690,262900 -17870,91370 -40140,178020 -57960,261220 -20110,93810 -31110,185180 -49960,278630 -39290,194890 -118520,769650 -130720,1014610 -12880,258930 -28140,533460 -28140,798000z"/>
  <path class="fil1" d="M6718380 18531670c85060,30450 242510,70360 313120,120060l427490 -15500 529100 0 529100 0 529100 0 529100 0 529100 0 529100 0 529100 0 529100 0 529100 0 529100 0 529100 0 529100 0c437060,-1390 687760,-213900 757270,-601680 11990,-287470 -72160,-308420 -106760,-485710l-131800 -113160c-121300,-89850 -154820,-94910 -307200,-147530l-126950 -8920 -8290 -1356760 -6777800 540 -10580 1351800c-346080,49480 -559990,202000 -644880,493810 -44260,152170 -28490,331450 35390,471080 53890,117790 111300,172820 185220,239790 51720,46850 31860,4600 46570,52180zm1165610 -13803870l-25800 661110 65740 459160 173300 440450 -129770 121780c-2650,-4930 -10760,9990 -16560,14470l-68520 207790c-16070,243900 19280,479740 112940,680980 135520,291180 269680,290260 398640,361520l71260 332900c31320,50490 77240,202240 103010,266080 103170,255590 403460,711450 410590,741560 226090,133430 162270,202330 161770,685630 -380,367990 11390,396830 -169980,665090 -168930,249850 -633510,591350 -1008850,709860 -47120,48090 -912940,428360 -988920,437110 -75100,91720 -265860,167170 -373370,238540 -144670,96040 -218460,145220 -342570,265420 -219810,212880 -332130,356640 -452390,726290 -34890,146150 -82730,376620 -35290,493580l137990 137990 391110 391110 137990 137990 391110 391110 137990 137990c77540,48540 89450,109460 180250,127860 55630,11280 220300,3120 287000,3120l581750 0 476460 0 581740 0 476460 0c1389710,0 2793340,-21190 4181230,-760 262870,3860 288250,-118760 598910,-426160l767630 -766470c138840,-136520 172170,-111380 138530,-387510 -44510,-365240 -146260,-515250 -298020,-769310 -65720,-54090 -32200,-3470 -54490,-87740 -92590,-58960 -157720,-136910 -250820,-207010 -94030,-70800 -155250,-125160 -261570,-187650 -184550,-108470 -383850,-198900 -563050,-302420 -204020,-68250 -1448000,-607340 -1572490,-855910 -137560,-67830 -303100,-294660 -357420,-501630l10510 -4560c-49390,-59860 -35660,-133690 -34500,-233030 8320,-714590 -92540,-555050 168700,-860780 114640,-134150 203980,-313970 299430,-465320 110820,-280130 235610,-499190 277250,-841380 275790,-87790 244790,-139340 332630,-200900 81990,-209940 167840,-344380 186170,-622160 20740,-314160 -96380,-402060 -215820,-554510l153600 -426720c141190,-675690 93830,-922960 -25630,-1581880 -68790,-183430 -139950,-353260 -209560,-529630 -87100,-129610 -157160,-236220 -261810,-339720 -45030,-44530 -98480,-93320 -157720,-133470 -51150,-34660 -131940,-74340 -166500,-107080 -216330,-52690 -289940,-82820 -539150,-107810 -68250,-256080 -332270,-512040 -563960,-591650 -454630,-221930 -1086840,-122830 -1542620,20780 -908860,286340 -1561910,1337560 -1704540,2235900z"/>
 </g>
</svg>
