<?xml version="1.0" encoding="UTF-8"?>
<!DOCTYPE svg PUBLIC "-//W3C//DTD SVG 1.1//EN" "http://www.w3.org/Graphics/SVG/1.1/DTD/svg11.dtd">
<!-- Creator: CorelDRAW X7 -->
<svg xmlns="http://www.w3.org/2000/svg" xml:space="preserve" width="210mm" height="210mm" version="1.1" style="shape-rendering:geometricPrecision; text-rendering:geometricPrecision; image-rendering:optimizeQuality; fill-rule:evenodd; clip-rule:evenodd"
viewBox="0 0 21000000 21000000"
 xmlns:xlink="http://www.w3.org/1999/xlink">
 <defs>
  <style type="text/css">
   <![CDATA[
    .str0 {stroke:#EBECEC;stroke-width:100000}
    .fil0 {fill:#35A53C}
    .fil1 {fill:#FEFEFE}
   ]]>
  </style>
 </defs>
 <g id="Слой_x0020_1">
  <metadata id="CorelCorpID_0Corel-Layer"/>
  <ellipse class="fil0 str0" cx="10499790" cy="10500000" rx="10499791" ry="10499996"/>
 </g>
 <g id="Слой_x0020_1_0">
  <metadata id="CorelCorpID_1Corel-Layer"/>
  <g id="_2617590250160">
   <path class="fil1" d="M11573710 11196590c-38110,-60640 -448820,-725160 -448820,-1228400 0,-522600 435050,-1496460 443530,-1515260 7310,-6420 15000,-12240 22190,-18990l2796810 -2672390c297470,-282210 309840,-752110 27610,-1049580l-56750 -59780c-282240,-297470 -752110,-309890 -1049570,-27690l-2625890 2509050c-50750,-13070 -102580,-20050 -154980,-20050l-1051940 20 -2054220 -2829460c-237040,-334560 -700430,-413670 -1034980,-176660l-67250 47660c-334600,237010 -413670,700390 -176660,1034980l2146090 2955970 0 3517230 -1689570 4721510c-138150,386030 62850,811000 448860,949200l77620 27720c386050,138150 811000,-62870 949140,-448820l1643870 -4593780 753570 -20 3235300 3745180c268050,310250 736880,344440 1047180,76460l62400 -53850c310230,-267940 344410,-736850 76460,-1047110l-3320000 -3843140z"/>
   <path class="fil1" d="M17234960 3764820c-1799030,-1799030 -4190970,-2789790 -6735170,-2789790 -2544240,0 -4936140,990750 -6735170,2789790 -1799020,1799020 -2789820,4190970 -2789820,6735170 0,2544180 990750,4936140 2789820,6735170 1799030,1799010 4190970,2789810 6735170,2789810 2544200,0 4936140,-990800 6735170,-2789810 1799020,-1799030 2789820,-4190990 2789820,-6735170 0,-2544240 -990800,-4936150 -2789820,-6735170zm-6735170 15513790c-4840570,0 -8778630,-3938070 -8778630,-8778640 0,-4840570 3938060,-8778630 8778630,-8778630 4840530,0 8778630,3938060 8778630,8778630 0,4840570 -3938060,8778640 -8778630,8778640z"/>
   <circle class="fil1" cx="10319178" cy="5188090" r="1306130"/>
  </g>
 </g>
</svg>
