<?xml version="1.0" encoding="UTF-8"?>
<!DOCTYPE svg PUBLIC "-//W3C//DTD SVG 1.1//EN" "http://www.w3.org/Graphics/SVG/1.1/DTD/svg11.dtd">
<!-- Creator: CorelDRAW X7 -->
<svg xmlns="http://www.w3.org/2000/svg" xml:space="preserve" width="210mm" height="210mm" version="1.1" style="shape-rendering:geometricPrecision; text-rendering:geometricPrecision; image-rendering:optimizeQuality; fill-rule:evenodd; clip-rule:evenodd"
viewBox="0 0 21000000 21000000"
 xmlns:xlink="http://www.w3.org/1999/xlink">
 <defs>
  <style type="text/css">
   <![CDATA[
    .fil1 {fill:#FEFEFE}
    .fil0 {fill:#4394F0}
   ]]>
  </style>
 </defs>
 <g id="Слой_x0020_1">
  <metadata id="CorelCorpID_0Corel-Layer"/>
  <circle class="fil0" cx="10500000" cy="10500000" r="10500000"/>
  <path class="fil1" d="M10420230 11468540l-2281890 1941740 -4987330 -1712050c-526540,-180750 -1121250,705230 -182290,1099160l12084470 4150910c176290,65890 392400,-31490 534610,-132020 266740,-188560 899390,-460790 1045160,-711690 189270,-325730 -12100,-756860 -384490,-811910 -343490,-50790 -482530,176030 -727130,265920 -11750,21200 -289160,189140 -349440,224500 -66170,38820 -63230,28260 -140730,500l-4900870 -1682340 2408750 -2042320c179350,-152070 307660,-478420 246690,-807790 -63440,-342690 -241780,-475500 -459460,-635320 -296420,-217620 -682450,-474610 -993680,-710950 -69640,-52870 -156140,-114810 -217030,-175350 114230,-101610 448270,-180170 516610,-269780l-2750800 -1826120c-858200,287230 -1062400,1503070 -536280,2220310 480930,655710 1508440,1016480 2075130,1614600zm4159200 -6570470c-573330,203200 -1340650,1664230 24890,2456420 1370930,795320 2860590,-1361750 1404500,-2348830 -510590,-346130 -937130,-282050 -1429390,-107590zm-8610750 125060l6127840 4105650c-54450,476900 -84790,963670 451770,1138220l2611430 705940c286590,18080 538950,-114980 693990,-357780 240130,-376060 94480,-993600 -601210,-1139450 -532130,-193320 -1076000,-198520 -1574180,-631500l214590 -1059220c-9390,-513140 -151440,-914880 -470200,-1347360 -230010,-327430 -673010,-476340 -1062270,-439990 -304300,28420 -875200,368670 -1195240,515320 377830,293270 828920,529170 1216680,822880 151830,114990 -7180,443470 -45630,615700l-5604930 -3736660c-739050,-590820 -1370290,388080 -762640,808250z"/>
 </g>
</svg>
